<svg xmlns="http://www.w3.org/2000/svg" width="500" height="500" fill="none" viewBox="0 0 500 500">
  <path fill="currentColor" d="M200.239 68.318c.723-9.318 7.014-16.869 15.34-19.713-.488-2.16-1.002-4.333-.824-6.651.97-12.504 11.916-21.854 24.428-20.885 7.382.57 13.324 4.795 17.033 10.572 4.56-5.137 11.105-8.393 18.486-7.823 11.624.9 20.186 10.51 20.592 21.886 1.591-.228 3.132-.722 4.813-.59 12.518.97 21.866 11.884 20.895 24.389-.913 11.776-10.742 20.441-22.316 20.638-2.219 11.11-12.087 19.231-23.692 18.332-5.65-.437-10.489-3.098-14.193-6.835-4.559 4.858-10.926 7.905-18.099 7.348a22.045 22.045 0 0 1-8.916-2.642l-.013.007c-2.225-1.388-5.403-1.495-7.939-.488 0 0-8.428 7.215-.038 18.642 0 0-15.664-6.518-12.861-20.251 2.194-10.718-5.086-17.18-5.086-17.18l.025-.012c-5.155-4.555-8.206-11.364-7.635-18.744Z"/>
  <path fill="currentColor" fill-rule="evenodd" d="M233.601 478.532c101.4 0 183.6-82.347 183.6-183.927 0-9.233-7.474-16.721-16.691-16.721H66.691c-9.223 0-16.691 7.488-16.691 16.721 0 101.58 82.201 183.927 183.601 183.927ZM82.799 260.298c0-101.581 82.2-183.928 183.6-183.928C367.793 76.37 450 158.717 450 260.298c0 9.232-7.474 16.72-16.691 16.72H99.489c-9.222 0-16.69-7.488-16.69-16.72Zm264.715-97.045a11.268 11.268 0 0 0-3.034-.426c-1.024 0-2.036.146-3.034.426a12.3 12.3 0 0 0-2.921 1.274 14.779 14.779 0 0 0-2.686 2.063 18.092 18.092 0 0 0-2.358 2.776 21.874 21.874 0 0 0-1.934 3.381 26.357 26.357 0 0 0-1.441 3.858 30.143 30.143 0 0 0-.885 4.19 32.082 32.082 0 0 0 0 8.703c.202 1.439.493 2.834.885 4.19a26.357 26.357 0 0 0 1.441 3.858 21.552 21.552 0 0 0 1.934 3.381 18.092 18.092 0 0 0 2.358 2.776 14.779 14.779 0 0 0 2.686 2.063c.942.56 1.916.987 2.921 1.274a11.036 11.036 0 0 0 6.068 0 12.4 12.4 0 0 0 2.914-1.274 14.584 14.584 0 0 0 2.693-2.063 18.37 18.37 0 0 0 2.357-2.776 22.637 22.637 0 0 0 1.935-3.381 26.341 26.341 0 0 0 1.435-3.858c.392-1.356.689-2.751.885-4.19.202-1.432.303-2.884.303-4.348 0-1.471-.101-2.923-.303-4.355a29.298 29.298 0 0 0-.885-4.19 26.341 26.341 0 0 0-1.435-3.858 22.994 22.994 0 0 0-1.935-3.381 18.37 18.37 0 0 0-2.357-2.776 14.584 14.584 0 0 0-2.693-2.063 12.359 12.359 0 0 0-2.914-1.274Z" clip-rule="evenodd"/>
</svg>
