<svg width="100%" height="100%" viewBox="0 0 24 24" fill="none" xmlns="http://www.w3.org/2000/svg">
    <path d="M10.25 3.75H11C11 3.33579 10.6642 3 10.25 3V3.75ZM10.25 10.25V11C10.6642 11 11 10.6642 11 10.25H10.25ZM3.75 10.25H3C3 10.6642 3.33579 11 3.75 11V10.25ZM4.84202 3.96799L5.18251 4.63624L4.84202 3.96799ZM3.96799 4.84202L4.63624 5.18251L3.96799 4.84202ZM13.75 3.75V3C13.3358 3 13 3.33579 13 3.75H13.75ZM20.25 10.25V11C20.6642 11 21 10.6642 21 10.25H20.25ZM13.75 10.25H13C13 10.6642 13.3358 11 13.75 11V10.25ZM19.158 3.96799L18.8175 4.63624L19.158 3.96799ZM20.032 4.84202L19.3638 5.18251L20.032 4.84202ZM3.75 13.75V13C3.33579 13 3 13.3358 3 13.75H3.75ZM10.25 13.75H11C11 13.3358 10.6642 13 10.25 13V13.75ZM10.25 20.25V21C10.6642 21 11 20.6642 11 20.25H10.25ZM4.84202 20.032L5.18251 19.3638L4.84202 20.032ZM3.96799 19.158L4.63624 18.8175L3.96799 19.158ZM20.5983 21.659C20.8912 21.9519 21.3661 21.9519 21.659 21.659C21.9519 21.3661 21.9519 20.8912 21.659 20.5984L20.5983 21.659ZM19.302 19.302L18.7708 18.7726L19.302 19.302ZM6.95 4.5H10.25V3H6.95V4.5ZM9.5 3.75V10.25H11V3.75H9.5ZM10.25 9.5H3.75V11H10.25V9.5ZM4.5 10.25V6.95H3V10.25H4.5ZM6.95 3C6.40232 3 5.94646 2.99942 5.57533 3.02974C5.19545 3.06078 4.83879 3.12789 4.50153 3.29973L5.18251 4.63624C5.27307 4.5901 5.41035 4.54822 5.69748 4.52476C5.99336 4.50058 6.37757 4.5 6.95 4.5V3ZM4.5 6.95C4.5 6.37757 4.50058 5.99336 4.52476 5.69748C4.54822 5.41035 4.5901 5.27307 4.63624 5.18251L3.29973 4.50153C3.12789 4.83879 3.06078 5.19545 3.02974 5.57533C2.99942 5.94646 3 6.40232 3 6.95H4.5ZM4.50153 3.29973C3.98408 3.56338 3.56338 3.98408 3.29973 4.50153L4.63624 5.18251C4.75608 4.94731 4.94731 4.75608 5.18251 4.63624L4.50153 3.29973ZM13.75 4.5H17.05V3H13.75V4.5ZM19.5 6.95V10.25H21V6.95H19.5ZM20.25 9.5H13.75V11H20.25V9.5ZM14.5 10.25V3.75H13V10.25H14.5ZM17.05 4.5C17.6224 4.5 18.0066 4.50058 18.3025 4.52476C18.5896 4.54822 18.7269 4.5901 18.8175 4.63624L19.4985 3.29973C19.1612 3.12789 18.8046 3.06078 18.4247 3.02974C18.0535 2.99942 17.5977 3 17.05 3V4.5ZM21 6.95C21 6.40232 21.0006 5.94646 20.9703 5.57533C20.9392 5.19545 20.8721 4.83879 20.7003 4.50153L19.3638 5.18251C19.4099 5.27307 19.4518 5.41035 19.4752 5.69748C19.4994 5.99336 19.5 6.37757 19.5 6.95H21ZM18.8175 4.63624C19.0527 4.75608 19.2439 4.94731 19.3638 5.18251L20.7003 4.50153C20.4366 3.98408 20.0159 3.56338 19.4985 3.29973L18.8175 4.63624ZM3.75 14.5H10.25V13H3.75V14.5ZM9.5 13.75V20.25H11V13.75H9.5ZM10.25 19.5H6.95V21H10.25V19.5ZM4.5 17.05V13.75H3V17.05H4.5ZM6.95 19.5C6.37757 19.5 5.99336 19.4994 5.69748 19.4752C5.41035 19.4518 5.27307 19.4099 5.18251 19.3638L4.50153 20.7003C4.83879 20.8721 5.19545 20.9392 5.57533 20.9703C5.94646 21.0006 6.40232 21 6.95 21V19.5ZM3 17.05C3 17.5977 2.99942 18.0535 3.02974 18.4247C3.06078 18.8046 3.12789 19.1612 3.29973 19.4985L4.63624 18.8175C4.5901 18.7269 4.54822 18.5896 4.52476 18.3025C4.50058 18.0066 4.5 17.6224 4.5 17.05H3ZM5.18251 19.3638C4.94731 19.2439 4.75608 19.0527 4.63624 18.8175L3.29973 19.4985C3.56338 20.0159 3.98408 20.4366 4.50153 20.7003L5.18251 19.3638ZM17 19.5078C15.6193 19.5078 14.5 18.3885 14.5 17.0078H13C13 19.217 14.7909 21.0078 17 21.0078V19.5078ZM14.5 17.0078C14.5 15.6271 15.6193 14.5078 17 14.5078V13.0078C14.7909 13.0078 13 14.7987 13 17.0078H14.5ZM17 14.5078C18.3807 14.5078 19.5 15.6271 19.5 17.0078H21C21 14.7987 19.2091 13.0078 17 13.0078V14.5078ZM18.7717 19.8323L20.5983 21.659L21.659 20.5984L19.8323 18.7717L18.7717 19.8323ZM19.5 17.0078C19.5 17.6969 19.2222 18.3196 18.7708 18.7726L19.8332 19.8314C20.5534 19.1088 21 18.1097 21 17.0078H19.5ZM18.7708 18.7726C18.3173 19.2276 17.6921 19.5078 17 19.5078V21.0078C18.1068 21.0078 19.1098 20.5573 19.8332 19.8314L18.7708 18.7726Z"
          fill="#838383"/>
</svg>
