<svg xmlns="http://www.w3.org/2000/svg" viewBox="0 0 24 24" fill="none">
<path
        d="M15.25 4.75H17.25C18.3546 4.75 19.25 5.64543 19.25 6.75V19.25C19.25 20.3546 18.3546 21.25 17.25 21.25H6.75C5.64543 21.25 4.75 20.3546 4.75 19.25V6.75C4.75 5.64543 5.64543 4.75 6.75 4.75H8.75M15.25 4.75V6.25C15.25 6.80228 14.8023 7.25 14.25 7.25H9.75C9.19772 7.25 8.75 6.80228 8.75 6.25V4.75M15.25 4.75C15.25 3.64543 14.3546 2.75 13.25 2.75H10.75C9.64543 2.75 8.75 3.64543 8.75 4.75"
        stroke="currentColor"
        stroke-width="1.5"
        stroke-linecap="square"
        stroke-linejoin="round"
    />
</svg>
