<svg xmlns="http://www.w3.org/2000/svg" width="24" height="24" fill="none" viewBox="0 0 24 24">
  <path fill="currentColor" d="M4 4.75A2.75 2.75 0 0 1 6.75 2h10.5A2.75 2.75 0 0 1 20 4.75v7.917a3.9 3.9 0 0 0-4.091.909l-3.75 3.75a2.25 2.25 0 0 0-.659 1.59v2.334c0 .263.045.515.128.75H6.75A2.75 2.75 0 0 1 4 19.25V4.75Z"/>
  <path fill="currentColor" fill-rule="evenodd" d="M19.303 15.697a.9.9 0 0 0-1.273 0l-3.53 3.53V20.5h1.273l3.53-3.53a.9.9 0 0 0 0-1.273Zm-2.333-1.06a2.4 2.4 0 1 1 3.394 3.393l-3.75 3.75a.75.75 0 0 1-.53.22H13.75a.75.75 0 0 1-.75-.75v-2.333a.75.75 0 0 1 .22-.53l3.75-3.75Z" clip-rule="evenodd"/>
</svg>
