<svg xmlns="http://www.w3.org/2000/svg" viewBox="0 0 24 24" fill="none">
<path
        d="M21.25 12C21.25 17.1086 17.1086 21.25 12 21.25C6.89137 21.25 2.75 17.1086 2.75 12C2.75 6.89137 6.89137 2.75 12 2.75"
        stroke="currentColor"
        stroke-width="1.5"
        stroke-linecap="round"
    /><path
        d="M19 1.75V8.25M15.75 5H22.25"
        stroke="currentColor"
        stroke-width="1.5"
        stroke-linecap="round"
    /><path
        d="M10.75 9.9C10.75 11.0046 10.0784 11.75 9.25 11.75C8.42157 11.75 7.75 11.0046 7.75 9.9C7.75 8.79543 8.42157 8 9.25 8C10.0784 8 10.75 8.79543 10.75 9.9Z"
        fill="currentColor"
    /><path
        d="M16.25 9.9C16.25 11.0046 15.5784 11.75 14.75 11.75C13.9216 11.75 13.25 11.0046 13.25 9.9C13.25 8.79543 13.9216 8 14.75 8C15.5784 8 16.25 8.79543 16.25 9.9Z"
        fill="currentColor"
    /><path
        d="M16.1123 14.8493C16.1942 14.7105 16.2249 14.545 16.192 14.3857C16.1592 14.2263 16.0665 14.0867 15.933 13.9968C15.7996 13.9069 15.6354 13.8733 15.4754 13.9028C15.3154 13.9321 15.1736 14.0226 15.0757 14.1507C15.0008 14.2469 14.9237 14.3367 14.8415 14.4241C14.1096 15.2083 13.061 15.628 12.0035 15.625C10.946 15.6265 9.8972 15.2055 9.16254 14.4222C9.08002 14.3348 9.00261 14.2451 8.92738 14.1491C8.8291 14.0214 8.68699 13.9313 8.52686 13.9024C8.36679 13.8735 8.20268 13.9076 8.06954 13.9979C7.9364 14.0882 7.84406 14.2281 7.81174 14.3875C7.77938 14.547 7.81054 14.7123 7.89293 14.8509C7.97731 14.99 8.06686 15.1223 8.16553 15.2526C9.04297 16.4311 10.5292 17.1343 12.0024 17.125C13.4754 17.1367 14.965 16.4342 15.8405 15.2521C15.939 15.1215 16.0282 14.9888 16.1123 14.8493Z"
        fill="currentColor"
    /><path
        d="M21.25 12C21.25 17.1086 17.1086 21.25 12 21.25C6.89137 21.25 2.75 17.1086 2.75 12C2.75 6.89137 6.89137 2.75 12 2.75"
        stroke="currentColor"
        stroke-width="1.5"
        stroke-linecap="round"
    />
</svg>
