<svg xmlns="http://www.w3.org/2000/svg" width="24" height="24" fill="none" viewBox="0 0 24 24">
  <path fill="currentColor" fill-rule="evenodd" d="M2 12C2 6.477 6.477 2 12 2s10 4.477 10 10-4.477 10-10 10S2 17.523 2 12Zm7.75-5a.75.75 0 0 1 .75.75v3.5a.75.75 0 0 1-1.5 0v-3.5A.75.75 0 0 1 9.75 7Zm4.5 0a.75.75 0 0 1 .75.75v3.5a.75.75 0 0 1-1.5 0v-3.5a.75.75 0 0 1 .75-.75Zm-6.143 7.864a.75.75 0 0 1 1.029-.257c1.04.624 1.97.905 2.864.905.894 0 1.824-.281 2.864-.905a.75.75 0 1 1 .772 1.286c-1.21.726-2.405 1.12-3.636 1.12-1.23 0-2.426-.394-3.636-1.12a.75.75 0 0 1-.257-1.029Z" clip-rule="evenodd"/>
</svg>
