<svg xmlns="http://www.w3.org/2000/svg" width="24" height="24" fill="none" viewBox="0 0 24 24">
  <path fill="currentColor" fill-rule="evenodd" d="M12 22c5.523 0 10-4.477 10-10S17.523 2 12 2 2 6.477 2 12s4.477 10 10 10ZM8.405 10.2a.75.75 0 0 1-1.12.263l-2.428-1.82a.707.707 0 0 1-.204-.92 8.496 8.496 0 0 1 8.675-4.12c.409.064.653.475.553.877l-.77 3.084a.75.75 0 0 1-.545.546l-3.226.81a.75.75 0 0 0-.487.39l-.448.889Zm6.805 6.385a.75.75 0 0 1-.671.415h-2.135a.75.75 0 0 1-.624-.334l-1.436-2.153a.75.75 0 0 1 .095-.948l.433-.431a.75.75 0 0 1 .577-.217l1.403.09a.75.75 0 0 1 .37.125l2.233 1.5a.75.75 0 0 1 .252.958l-.498.995Z" clip-rule="evenodd"/>
</svg>
