<svg xmlns="http://www.w3.org/2000/svg" width="24" height="24" fill="none" viewBox="0 0 24 24">
  <path fill="#000" fill-rule="evenodd" d="M4.75 3A2.75 2.75 0 0 0 2 5.75v11.927A2.323 2.323 0 0 0 4.323 20h13.682a2.75 2.75 0 0 0 2.638-1.974l1.7-5.782A1.75 1.75 0 0 0 21 10.032V8.75A2.75 2.75 0 0 0 18.25 6h-5.715a.25.25 0 0 1-.208-.111l-1.11-1.664A2.75 2.75 0 0 0 8.93 3H4.75Zm14.75 7V8.75c0-.69-.56-1.25-1.25-1.25h-5.715a1.75 1.75 0 0 1-1.456-.78L9.97 5.058A1.25 1.25 0 0 0 8.93 4.5H4.75c-.69 0-1.25.56-1.25 1.25v11.927a.823.823 0 0 0 1.613.232l1.745-5.935A2.75 2.75 0 0 1 9.496 10H19.5Z" clip-rule="evenodd"/>
</svg>
