<svg xmlns="http://www.w3.org/2000/svg" width="24" height="24" fill="currentColor" viewBox="0 0 24 24">
  <path fill="#000" d="M3.999 7a4 4 0 1 1 8 0 4 4 0 0 1-8 0Zm9.499.5a3.5 3.5 0 1 1 7 0 3.5 3.5 0 0 1-7 0ZM7.999 12c-1.765 0-3.236.635-4.365 1.72-1.117 1.074-1.868 2.557-2.282 4.225C.932 19.64 2.351 21 3.9 21h8.197c1.55 0 2.968-1.361 2.548-3.055-.413-1.668-1.164-3.151-2.281-4.225-1.13-1.085-2.6-1.72-4.365-1.72Zm6.174.715c1.21 1.337 1.983 3.011 2.414 4.749.231.934.167 1.79-.103 2.536h3.86c1.538 0 2.996-1.365 2.51-3.075C22.06 14.14 20.103 12 16.997 12c-1.08 0-2.023.26-2.825.715Z"/>
</svg>
