<svg xmlns="http://www.w3.org/2000/svg" width="24" height="24" fill="none" viewBox="0 0 24 24">
  <path stroke="currentColor" stroke-linecap="round" stroke-linejoin="round" stroke-width="1.5" d="M17.75 19.25h2.596c1.163 0 2.106-1.001 1.788-2.12-.733-2.573-2.465-4.38-5.134-4.38-.446 0-.866.05-1.26.147M11.25 7a3.25 3.25 0 1 1-6.5 0 3.25 3.25 0 0 1 6.5 0Zm8.5.5a2.75 2.75 0 1 1-5.5 0 2.75 2.75 0 0 1 5.5 0ZM2.08 18.126c.78-3.14 2.78-5.376 5.92-5.376s5.14 2.237 5.918 5.376c.28 1.128-.658 2.124-1.82 2.124H3.901c-1.162 0-2.1-.996-1.82-2.124Z"/>
</svg>
