<svg xmlns="http://www.w3.org/2000/svg" width="24" height="24" fill="none" viewBox="0 0 24 24">
  <path fill="currentColor" fill-rule="evenodd" d="M3 13.745V5.75A2.75 2.75 0 0 1 5.75 3h12.5A2.75 2.75 0 0 1 21 5.75v12.5A2.75 2.75 0 0 1 18.25 21H5.75A2.75 2.75 0 0 1 3 18.25M5.75 4.5h12.5c.69 0 1.25.56 1.25 1.25V13h-3.57a.75.75 0 0 0-.737.61 3.251 3.251 0 0 1-6.386 0A.75.75 0 0 0 8.07 13H4.5V5.75c0-.69.56-1.25 1.25-1.25Z" clip-rule="evenodd"/>
  <path fill="currentColor" d="M3 18.25v-4.505"/>
</svg>
