<svg xmlns="http://www.w3.org/2000/svg" width="24" height="24" fill="none" viewBox="0 0 24 24">
  <path fill="currentColor" fill-rule="evenodd" d="M4.75 4A2.75 2.75 0 0 0 2 6.75v10.5A2.75 2.75 0 0 0 4.75 20h14.5A2.75 2.75 0 0 0 22 17.25V6.75A2.75 2.75 0 0 0 19.25 4H4.75ZM3.5 6.75c0-.69.56-1.25 1.25-1.25h5.75v13H4.75c-.69 0-1.25-.56-1.25-1.25V6.75Z" clip-rule="evenodd"/>
  <path fill="currentColor" fill-rule="evenodd" d="M7 9.5a1 1 0 1 1 0-2 1 1 0 0 1 0 2ZM7 13a1 1 0 1 1 0-2 1 1 0 0 1 0 2Zm0 3.5a1 1 0 1 1 0-2 1 1 0 0 1 0 2Z" clip-rule="evenodd"/>
</svg>
