<svg xmlns="http://www.w3.org/2000/svg" width="24" height="24" fill="none" viewBox="0 0 24 24">
  <path fill="currentColor" fill-rule="evenodd" d="M2 4.75A2.75 2.75 0 0 1 4.75 2h8.5A2.75 2.75 0 0 1 16 4.75V8h3.25A2.75 2.75 0 0 1 22 10.75v8.5A2.75 2.75 0 0 1 19.25 22h-8.5A2.75 2.75 0 0 1 8 19.25V16H4.75A2.75 2.75 0 0 1 2 13.25v-8.5ZM14.5 8V4.75c0-.69-.56-1.25-1.25-1.25h-8.5c-.69 0-1.25.56-1.25 1.25v5.991l.983-.644a2.75 2.75 0 0 1 3.033.012l.5.334A2.75 2.75 0 0 1 10.75 8h3.75ZM5 6.25a1.25 1.25 0 1 1 2.5 0 1.25 1.25 0 0 1-2.5 0Zm8.39 6.292a.75.75 0 0 1 .766.027l2.8 1.8a.75.75 0 0 1 0 1.262l-2.8 1.8A.75.75 0 0 1 13 16.8v-3.6a.75.75 0 0 1 .39-.658Z" clip-rule="evenodd"/>
</svg>
